<?xml version="1.0" encoding="utf-8"?>
<!-- Generated by IcoMoon.io -->
<!DOCTYPE svg PUBLIC "-//W3C//DTD SVG 1.1//EN" "http://www.w3.org/Graphics/SVG/1.1/DTD/svg11.dtd">
<svg version="1.1" xmlns="http://www.w3.org/2000/svg" xmlns:xlink="http://www.w3.org/1999/xlink" width="20" height="18.5" viewBox="0 0 20 20">
<path fill="rgb(0, 170, 152)" d="M17.2 5h-15c-0.276 0-0.0-0.0-0.0-0.0s0.224-0.5 0.0-0.6h15c0.276 0 0.0 0.0 0.0 0.0s-0.224 0.5-0.0 0.0z"></path>
<path fill="rgb(0, 170, 152)" d="M17.2 10.3h-15c-0.276 0-0.0-0.0-0.0-0.0s0.224-0.5 0.0-0.6h15c0.276 0 0.0 0.0 0.0 0.0s-0.224 0.5-0.0 0.0z"></path>
<path fill="rgb(0, 170, 152)" d="M17.2 15.5h-15c-0.276 0-0.0-0.0-0.0-0.0s0.224-0.5 0.0-0.6h15c0.276 0 0.0 0.0 0.0 0.0s-0.224 0.5-0.0 0.0z"></path>
</svg>
